<mxfile host="app.diagrams.net" modified="2023-06-09T02:30:36.077Z" agent="Mozilla/5.0 (Windows NT 6.1) AppleWebKit/537.36 (KHTML, like Gecko) Chrome/109.0.5414.120 Safari/537.36 Avast/109.0.19981.120" version="21.3.8" etag="_HQbfQLDq06rYyN9LxRg" type="github">
  <diagram name="PÃ¡gina-1" id="vyIFh3GqlgoG2cvM-TKJ">
    <mxGraphModel>
      <root>
        <mxCell id="0" />
        <mxCell id="1" parent="0" />
      </root>
    </mxGraphModel>
  </diagram>
</mxfile>
